<svg width="19" xmlns="http://www.w3.org/2000/svg" height="19" id="screenshot-4817fec7-1fd8-80a8-8006-763ecaf0b48c" viewBox="0 0 19 19" xmlns:xlink="http://www.w3.org/1999/xlink" fill="none" version="1.1"><g id="shape-4817fec7-1fd8-80a8-8006-763ecaf0b48c" class="size-6" rx="0" ry="0" style="fill: rgb(0, 0, 0);"><g id="shape-4817fec7-1fd8-80a8-8006-763ecaf0b48d" style="display: none;"><g class="fills" id="fills-4817fec7-1fd8-80a8-8006-763ecaf0b48d"><rect width="19" height="19" x="0" transform="matrix(1.000000, 0.000000, 0.000000, 1.000000, 0.000000, 0.000000)" style="fill: none;" ry="0" fill="none" rx="0" y="0"/></g><g fill="none" id="strokes-8f79817c-60f2-80cf-8006-7d3f6ce785c4-4817fec7-1fd8-80a8-8006-763ecaf0b48d" class="strokes"><g class="inner-stroke-shape" transform="matrix(1.000000, 0.000000, 0.000000, 1.000000, 0.000000, 0.000000)"><defs><clipPath id="inner-stroke-render-2-4817fec7-1fd8-80a8-8006-763ecaf0b48d-0"><use href="#stroke-shape-render-2-4817fec7-1fd8-80a8-8006-763ecaf0b48d-0"/></clipPath><rect rx="0" ry="0" x="0" y="0" width="19" height="19" id="stroke-shape-render-2-4817fec7-1fd8-80a8-8006-763ecaf0b48d-0" style="fill: none; stroke-width: 3; stroke: rgb(198, 198, 198); stroke-opacity: 1;"/></defs><use href="#stroke-shape-render-2-4817fec7-1fd8-80a8-8006-763ecaf0b48d-0" clip-path="url('#inner-stroke-render-2-4817fec7-1fd8-80a8-8006-763ecaf0b48d-0')"/></g></g></g><g id="shape-4817fec7-1fd8-80a8-8006-763ecaf0b48e"><g class="fills" id="fills-4817fec7-1fd8-80a8-8006-763ecaf0b48e"><path d="M1.781280517578125,10.09375L1.781280517578125,9.5C1.781280517578125,8.5162353515625,2.578765869140625,7.71875,3.562530517578125,7.71875L15.437530517578125,7.71875C16.4212646484375,7.71875,17.21875,8.5162353515625,17.21875,9.5L17.21875,10.09375M10.339263916015625,4.99542236328125L8.660797119140625,3.31707763671875C8.438140869140625,3.0941162109375,8.136016845703125,2.96881103515625,7.820953369140625,2.96875L3.562530517578125,2.96875C3.090118408203125,2.96875,2.636993408203125,3.15643310546875,2.303009033203125,3.490447998046875C1.968902587890625,3.82452392578125,1.781280517578125,4.277587890625,1.781280517578125,4.75L1.781280517578125,14.25C1.781280517578125,15.2337646484375,2.578765869140625,16.03125,3.562530517578125,16.03125L15.437530517578125,16.03125C16.4212646484375,16.03125,17.21875,15.2337646484375,17.21875,14.25L17.21875,7.125C17.21875,6.1412353515625,16.4212646484375,5.34375,15.437530517578125,5.34375L11.179107666015625,5.34375C10.864288330078125,5.343475341796875,10.562530517578125,5.218170166015625,10.339996337890625,4.99542236328125Z" fill="none" stroke-linecap="round" stroke-linejoin="round" style="fill: none;"/></g><g fill="none" stroke-linecap="round" stroke-linejoin="round" id="strokes-8f79817c-60f2-80cf-8006-7d3f6ce8f657-4817fec7-1fd8-80a8-8006-763ecaf0b48e" class="strokes"><g class="stroke-shape"><path d="M1.781280517578125,10.09375L1.781280517578125,9.5C1.781280517578125,8.5162353515625,2.578765869140625,7.71875,3.562530517578125,7.71875L15.437530517578125,7.71875C16.4212646484375,7.71875,17.21875,8.5162353515625,17.21875,9.5L17.21875,10.09375M10.339263916015625,4.99542236328125L8.660797119140625,3.31707763671875C8.438140869140625,3.0941162109375,8.136016845703125,2.96881103515625,7.820953369140625,2.96875L3.562530517578125,2.96875C3.090118408203125,2.96875,2.636993408203125,3.15643310546875,2.303009033203125,3.490447998046875C1.968902587890625,3.82452392578125,1.781280517578125,4.277587890625,1.781280517578125,4.75L1.781280517578125,14.25C1.781280517578125,15.2337646484375,2.578765869140625,16.03125,3.562530517578125,16.03125L15.437530517578125,16.03125C16.4212646484375,16.03125,17.21875,15.2337646484375,17.21875,14.25L17.21875,7.125C17.21875,6.1412353515625,16.4212646484375,5.34375,15.437530517578125,5.34375L11.179107666015625,5.34375C10.864288330078125,5.343475341796875,10.562530517578125,5.218170166015625,10.339996337890625,4.99542236328125Z" style="fill: none; stroke-width: 1.5; stroke: rgb(198, 198, 198); stroke-opacity: 1;"/></g></g></g></g></svg>