<svg width="12" xmlns="http://www.w3.org/2000/svg" height="12" id="screenshot-7dcfe9cd-15aa-80dd-8006-764401982711" viewBox="0 0 12 12" xmlns:xlink="http://www.w3.org/1999/xlink" fill="none" version="1.1"><g id="shape-7dcfe9cd-15aa-80dd-8006-764401982711" class="size-6" rx="0" ry="0" style="fill: rgb(0, 0, 0);"><g id="shape-7dcfe9cd-15aa-80dd-8006-76440198d6da" style="display: none;"><g class="fills" id="fills-7dcfe9cd-15aa-80dd-8006-76440198d6da"><rect width="12" height="12" x="0" transform="matrix(1.000000, 0.000000, 0.000000, 1.000000, 0.000000, 0.000000)" style="fill: none;" ry="0" fill="none" rx="0" y="0"/></g><g fill="none" id="strokes-e3800114-87d9-8047-8006-7d357fa3a445-7dcfe9cd-15aa-80dd-8006-76440198d6da" class="strokes"><g class="inner-stroke-shape" transform="matrix(1.000000, 0.000000, 0.000000, 1.000000, 0.000000, 0.000000)"><defs><clipPath id="inner-stroke-render-2-7dcfe9cd-15aa-80dd-8006-76440198d6da-0"><use href="#stroke-shape-render-2-7dcfe9cd-15aa-80dd-8006-76440198d6da-0"/></clipPath><rect rx="0" ry="0" x="0" y="0" width="12" height="12" id="stroke-shape-render-2-7dcfe9cd-15aa-80dd-8006-76440198d6da-0" style="fill: none; stroke-width: 3; stroke: rgb(200, 200, 200); stroke-opacity: 1;"/></defs><use href="#stroke-shape-render-2-7dcfe9cd-15aa-80dd-8006-76440198d6da-0" clip-path="url('#inner-stroke-render-2-7dcfe9cd-15aa-80dd-8006-76440198d6da-0')"/></g></g></g><g id="shape-7dcfe9cd-15aa-80dd-8006-764401997fd9"><g class="fills" id="fills-7dcfe9cd-15aa-80dd-8006-764401997fd9"><path d="M8.011474609375,4.67401123046875L10.50750732421875,4.67401123046875L10.50750732421875,4.673492431640625M1.49249267578125,9.822021484375L1.49249267578125,7.32598876953125M1.49249267578125,7.32598876953125L3.988525390625,7.32598876953125M1.49200439453125,7.32598876953125L3.08251953125,8.91748046875C4.12469482421875,9.959716796875,5.64373779296875,10.36663818359375,7.0673828125,9.98504638671875C8.490966796875,9.603424072265625,9.60284423828125,8.491241455078125,9.9840087890625,7.0675048828125M2.0155029296875,4.9324951171875C2.39666748046875,3.508758544921875,3.508544921875,2.396575927734375,4.93212890625,2.01495361328125C6.355712890625,1.63336181640625,7.87481689453125,2.040283203125,8.9169921875,3.08251953125L10.50750732421875,4.673492431640625M10.50750732421875,2.177978515625L10.50750732421875,4.673004150390625" fill="none" stroke-linecap="round" stroke-linejoin="round" style="fill: none;"/></g><g fill="none" stroke-linecap="round" stroke-linejoin="round" id="strokes-e3800114-87d9-8047-8006-7d357fa49c32-7dcfe9cd-15aa-80dd-8006-764401997fd9" class="strokes"><g class="stroke-shape"><path d="M8.011474609375,4.67401123046875L10.50750732421875,4.67401123046875L10.50750732421875,4.673492431640625M1.49249267578125,9.822021484375L1.49249267578125,7.32598876953125M1.49249267578125,7.32598876953125L3.988525390625,7.32598876953125M1.49200439453125,7.32598876953125L3.08251953125,8.91748046875C4.12469482421875,9.959716796875,5.64373779296875,10.36663818359375,7.0673828125,9.98504638671875C8.490966796875,9.603424072265625,9.60284423828125,8.491241455078125,9.9840087890625,7.0675048828125M2.0155029296875,4.9324951171875C2.39666748046875,3.508758544921875,3.508544921875,2.396575927734375,4.93212890625,2.01495361328125C6.355712890625,1.63336181640625,7.87481689453125,2.040283203125,8.9169921875,3.08251953125L10.50750732421875,4.673492431640625M10.50750732421875,2.177978515625L10.50750732421875,4.673004150390625" style="fill: none; stroke-width: 1.5; stroke: rgb(200, 200, 200); stroke-opacity: 1;"/></g></g></g></g></svg>